# xmcd
#
# Track frame offsets: 
#        150
#        15113
#        29710
#        44557
#        67550
#        86084
#        109475
#        128306
#        144133
#
# Disc length: 2142 seconds
#
# Revision: 0
# Processed by: cddbd v1.5.2PL0 Copyright (c) Steve Scherf et al.
# Submitted via: ExactAudioCopy v0.95b4
#
DISCID=68085c09
DTITLE=The Mighty Clouds of Joy - It's Time
DYEAR=1974
DGENRE=R&B
TTITLE0=Time
TTITLE1=Stoned World
TTITLE2=Laugh
TTITLE3=You Think You're Doin It on Your Own
TTITLE4=The Master Plan
TTITLE5=Mighty Cloud of Joy
TTITLE6=Everything Is Going Up
TTITLE7=Heart Full of Love
TTITLE8=Time (Instrumental)
EXTD=
EXTT0=
EXTT1=
EXTT2=
EXTT3=
EXTT4=
EXTT5=
EXTT6=
EXTT7=
EXTT8=
PLAYORDER=
